<svg width="36" height="36" viewBox="0 0 36 36" xmlns="http://www.w3.org/2000/svg"><path d="M32.943 16.465a3.207 3.207 0 00-.045-.43 14.018 14.018 0 00-.895-3.463 14.652 14.652 0 00-.526-1.167c-.18-.346-.384-.693-.617-1.07l-.09-.15c-.03-.045-.06-.083-.075-.105a14.896 14.896 0 00-.858-1.137l-.105-.136a2.209 2.209 0 00-.098-.105 15.62 15.62 0 00-.91-.949 13.256 13.256 0 00-.887-.745l-.135-.106c-.045-.038-.098-.068-.12-.083-.27-.195-.55-.384-.805-.55l-.015.023c-.233-.18-.737-.482-1.767-1.107-.285-.173-.496-.3-.534-.316-3.97-2.44-8.954-2.492-13.338-.15-4.805 2.56-7.902 7.371-8.098 12.536-.3 5.143 2.113 9.917 6.286 12.5l.09.06C11.8 31.396 14.694 33 18.041 33c.097 0 .202 0 .3-.008 1.368 0 2.82-.233 4.196-.655 1.248-.391 2.571-1.039 3.827-1.875a14.96 14.96 0 001.12-.858l.098-.083c.18-.15.323-.263.503-.459a16.5 16.5 0 00.632-.625l.06-.06c.158-.15.226-.226.369-.4.158-.18.308-.36.45-.541l.069-.083c.135-.158.233-.279.36-.475.113-.15.218-.308.346-.497.136-.188.294-.414.414-.64.105-.173.203-.338.285-.504a5.13 5.13 0 00.361-.685c.09-.181.173-.362.248-.535.113-.218.204-.444.294-.708.083-.203.158-.406.218-.595.105-.248.165-.496.218-.692.068-.249.135-.505.195-.746l.015-.067c.068-.249.113-.505.158-.761l.053-.316c.128-.844.188-1.694.165-2.553 0-.369-.015-.738-.052-1.114z" fill="#5A4C18"/><path d="M31.44 16.591c-.312-3.43-2.09-6.702-4.878-8.743-.689-.508-2.302-1.384-3.056-1.822l.05.033c-7.317-4.262-16.924.684-18.723 9.126-1.28 5.685 1.203 11.156 5.747 13.7-.027-.017-.055-.027-.082-.044l1.996 1.138c5.39 3.195 12.707 1.078 16.26-3.906 1.997-2.692 3.014-6.128 2.686-9.482z" fill="#34823A"/><path d="M21.532 9.96c-4.079-2.189-9.393.027-11.35 4.07-2.007 3.743-1.165 9.307 2.777 11.161 9.727 4.58 17.327-9.42 8.573-15.231z" fill="#DDEAC5"/><path d="M21.21 12.663a9.66 9.66 0 01-1.127 2.27c-.131-.268-.345-.475-.585-.645 0 0-.006 0-.006-.005-.186-.137-.59-.356-.793-.476l.05.032c-1.438-.842-3.32-.552-4.495.717-1.323 1.576-1.514 3.88-2.947 5.428-.033.038-.115.109-.126.158-.016.088.099.17.18.213.143.083.285.16.427.241-.115-.06-.312-.175-.426-.24-.006-.006-.011-.006-.017-.012l.246.137c-.005-.005-.01-.005-.016-.01 2.001 1.176 4.522 2.434 6.878 1.963v-.038l-.497-.284a2.318 2.318 0 01-.361-.093c-1.247-1.144.36-3.343 1.87-2.676.629.51.607 1.762-.115 2.26l.038.06c.044-.01.044-.01 0 0l.498.285c2.553-.63 3.592-4.913.88-6.046 0-.016 0-.033.011-.044.607-.7 1.28-1.346 2.023-1.893-.295-.569-.88-.935-1.432-1.225l-.159-.077zm-.958 2.976c0 .006.006.006 0 0 .006.006 0 .006 0 0zm.782.482c-.01-.011-.027-.022-.038-.033.016.011.027.022.038.033zm-1.378-1.346c0-.005 0-.005 0 0z" fill="#34823A"/><path d="M19.864 4.702c6.72 1.236 10.881 7.944 9.307 14.974-1.411 6.276-6.917 10.69-12.855 10.69-.722 0-1.45-.065-2.17-.196-6.72-1.242-10.893-7.95-9.313-14.986 1.411-6.27 6.917-10.68 12.855-10.68.722 0 1.45.067 2.176.198zm5.25 14.23c1.055-4.688-1.723-9.158-6.207-9.985a8.155 8.155 0 00-1.448-.13c-3.96 0-7.628 2.943-8.568 7.123-1.05 4.688 1.722 9.153 6.206 9.984.48.088.967.132 1.443.132 3.964 0 7.633-2.944 8.573-7.124z" fill="#45A74C"/><path d="M22.292 13.686a11.62 11.62 0 00-2.023 1.893c-.032.044-.016.104.033.115.65.208 1.165.755 1.4 1.423.251.694.213 1.493-.038 2.22-.328.953-.985 1.856-1.898 2.211-.049.022-.339.11-.388.12l-.038-.06c.027-.043.202-.142.273-.246.394-.569.372-1.313.044-1.789-.273-.4-.776-.618-1.274-.618-.18 0-.355.027-.525.082a1.833 1.833 0 00-1.208 1.641c-.044.76.426 1.297 1.29 1.445v.038c-.175.082-.448.115-.776.115-.815 0-1.958-.213-2.762-.47-1.077-.34-2.072-.882-3.045-1.445-.082-.044-.197-.126-.18-.213.01-.05.092-.12.125-.16a9.264 9.264 0 001.263-2.04c.52-1.154.831-2.45 1.684-3.386a3.678 3.678 0 012.723-1.199c.848 0 1.679.296 2.302.87.24.225.405.602.569.909h.093a9.642 9.642 0 001.263-2.479c.46.219.842.58 1.093 1.023z" fill="#45A74C"/></svg>